<svg width="25" height="24" viewBox="0 0 25 24" fill="none" xmlns="http://www.w3.org/2000/svg">
 <path d="M16.2544 16.7194L6.9547 21.9209C5.85519 22.5359 4.5 21.7411 4.5 20.4813V10.0782C4.5 8.81843 5.85519 8.02365 6.9547 8.63863L16.2544 13.8402C16.2544 13.8402 16.2544 13.8402 16.2544 13.8402C17.3801 14.4698 17.3801 16.0898 16.2544 16.7194Z" fill="#2563EB" stroke="#2563EB" />
 <path d="M20.163 12.4042V12.4042C20.163 12.7056 19.8342 12.8913 19.5762 12.736L15.6875 10.3952C15.6875 10.3952 15.6875 10.3952 15.6875 10.3952C15.4328 10.2419 15.4388 9.87071 15.6981 9.72561C15.6981 9.7256 15.6981 9.72559 15.6981 9.72558L19.5869 7.55056C19.845 7.40618 20.1631 7.59276 20.1631 7.88848C20.1631 7.88849 20.1631 7.88849 20.1631 7.8885L20.163 12.4042Z" fill="#2563EB" stroke="#2563EB" />
 <path d="M12.3063 8.70717L7.05863 5.77203C6.57209 5.4999 6.57209 4.79974 7.05863 4.52761L12.3063 1.59247C12.7815 1.32667 13.3673 1.67018 13.3673 2.21468V8.08496C13.3673 8.62946 12.7815 8.97296 12.3063 8.70717Z" fill="#2563EB" stroke="#2563EB" />
</svg>