<svg width="24" height="24" viewBox="0 0 24 24" fill="none" xmlns="http://www.w3.org/2000/svg">
<g filter="url(#filter0_b_39_15)">
<path d="M8.10482 6.78678C8.86353 5.98402 10.1294 5.94831 10.9321 6.70702L14.8798 10.4381C15.6826 11.1968 15.7183 12.4626 14.9596 13.2654L11.2285 17.2131C10.4698 18.0158 9.20398 18.0515 8.40122 17.2928L4.45353 13.5618C3.65077 12.8031 3.61506 11.5372 4.37377 10.7345L8.10482 6.78678Z" fill="url(#paint0_radial_39_15)"/>
</g>
<g filter="url(#filter1_b_39_15)">
<path d="M11.4005 5.45353C12.1592 4.65077 13.4251 4.61506 14.2278 5.37377L19.5465 10.4005C20.3492 11.1592 20.3849 12.4251 19.6262 13.2278L14.5995 18.5465C13.8408 19.3492 12.5749 19.3849 11.7722 18.6262L6.45353 13.5995C5.65077 12.8408 5.61506 11.5749 6.37377 10.7722L11.4005 5.45353Z" fill="url(#paint1_radial_39_15)"/>
</g>
<defs>
<filter id="filter0_b_39_15" x="-0.172729" y="2.16052" width="19.6787" height="19.6787" filterUnits="userSpaceOnUse" color-interpolation-filters="sRGB">
<feFlood flood-opacity="0" result="BackgroundImageFix"/>
<feGaussianBlur in="BackgroundImageFix" stdDeviation="2"/>
<feComposite in2="SourceAlpha" operator="in" result="effect1_backgroundBlur_39_15"/>
<feBlend mode="normal" in="SourceGraphic" in2="effect1_backgroundBlur_39_15" result="shape"/>
</filter>
<filter id="filter1_b_39_15" x="1.82727" y="0.827271" width="22.3455" height="22.3455" filterUnits="userSpaceOnUse" color-interpolation-filters="sRGB">
<feFlood flood-opacity="0" result="BackgroundImageFix"/>
<feGaussianBlur in="BackgroundImageFix" stdDeviation="2"/>
<feComposite in2="SourceAlpha" operator="in" result="effect1_backgroundBlur_39_15"/>
<feBlend mode="normal" in="SourceGraphic" in2="effect1_backgroundBlur_39_15" result="shape"/>
</filter>
<radialGradient id="paint0_radial_39_15" cx="0" cy="0" r="1" gradientUnits="userSpaceOnUse" gradientTransform="translate(-7.84719 11.9999) scale(27.305 43.6704)">
<stop stop-color="white" stop-opacity="0.4"/>
<stop offset="1" stop-color="white"/>
</radialGradient>
<radialGradient id="paint1_radial_39_15" cx="0" cy="0" r="1" gradientUnits="userSpaceOnUse" gradientTransform="translate(20.5 12) rotate(-180) scale(40.5 64.7739)">
<stop stop-color="#2563EB"/>
<stop offset="1" stop-color="#2563EB" stop-opacity="0"/>
</radialGradient>
</defs>
</svg>
