<svg width="101" height="100" viewBox="0 0 101 100" fill="none" xmlns="http://www.w3.org/2000/svg">
<path d="M69.2437 70.8721L30.4949 92.545C24.5249 95.8842 17.1666 91.5687 17.1666 84.7283V41.3822C17.1666 34.5419 24.5249 30.2265 30.4949 33.5656L69.2437 55.2387C75.3558 58.6575 75.3558 67.4533 69.2437 70.8721Z" fill="#2563EB"/>
<path d="M75.6679 47.9621V47.962L75.6683 34.508C75.6683 34.508 75.6683 34.508 75.6683 34.508C75.6683 33.6348 74.729 33.0839 73.9668 33.5102L75.6679 47.9621ZM75.6679 47.9621C75.6679 48.8521 74.697 49.4004 73.9353 48.9419C73.9353 48.9419 73.9353 48.9419 73.9352 48.9419L62.3494 41.9678L75.6679 47.9621ZM62.3807 39.9904L73.9668 33.5102L62.3494 41.9678C61.5973 41.515 61.6149 40.419 62.3806 39.9905C62.3806 39.9905 62.3806 39.9905 62.3807 39.9904Z" fill="white" stroke="#2563EB" stroke-width="3"/>
<path d="M51.4916 36.1785L29.6261 23.9488C27.2008 22.5922 27.2008 19.102 29.6261 17.7455L51.4916 5.51573C53.8604 4.19077 56.7802 5.90312 56.7802 8.61738V33.0769C56.7802 35.7912 53.8604 37.5035 51.4916 36.1785Z" fill="white" stroke="#2563EB" stroke-width="3"/>
</svg>
